<?xml version="1.0" encoding="UTF-8"?>
<svg id="Layer_1" data-name="Layer 1" xmlns="http://www.w3.org/2000/svg" xmlns:xlink="http://www.w3.org/1999/xlink" viewBox="0 0 1024 1024">
  <defs>
    <style>
      .cls-1 {
        fill: url(#linear-gradient);
      }

      .cls-2 {
        fill: none;
        stroke: #fff;
        stroke-linecap: round;
        stroke-linejoin: round;
        stroke-width: 61.249px;
      }
    </style>
    <linearGradient id="linear-gradient" x1="813.264" y1="1033.805" x2="210.736" y2="-9.805" gradientUnits="userSpaceOnUse">
      <stop offset="0" stop-color="#535fe5"/>
      <stop offset=".489" stop-color="#45ddfc"/>
      <stop offset="1" stop-color="#1dfda0"/>
    </linearGradient>
  </defs>
  <g>
    <rect x="125.073" y="125.073" width="773.855" height="773.855" rx="76.854" ry="76.854"/>
    <path class="cls-1" d="M822.073,125.073c42.445,0,76.854,34.409,76.854,76.854v620.146c0,42.445-34.409,76.854-76.854,76.854H201.927c-42.445,0-76.854-34.409-76.854-76.854V201.927c0-42.445,34.409-76.854,76.854-76.854h620.146M822.073,22.991H201.927c-24.111,0-47.555,4.745-69.681,14.104-21.32,9.018-40.446,21.905-56.846,38.306-16.4,16.4-29.288,35.526-38.306,56.846-9.358,22.126-14.104,45.57-14.104,69.681v620.146c0,24.111,4.745,47.555,14.104,69.681,9.018,21.32,21.905,40.446,38.306,56.846,16.4,16.4,35.526,29.288,56.846,38.306,22.126,9.358,45.57,14.104,69.681,14.104h620.146c24.111,0,47.555-4.745,69.681-14.104,21.32-9.017,40.446-21.905,56.846-38.306,16.4-16.4,29.288-35.526,38.306-56.846,9.358-22.126,14.104-45.57,14.104-69.681V201.927c0-24.111-4.745-47.555-14.104-69.681-9.017-21.32-21.905-40.446-38.306-56.846-16.4-16.4-35.526-29.288-56.846-38.306-22.126-9.358-45.57-14.104-69.681-14.104h0Z"/>
  </g>
  <polyline class="cls-2" points="296.719 398.421 446.804 512 296.719 625.579"/>
</svg>